HIERARCHY
ROOT hip
{
  OFFSET 0 0 0
  CHANNELS 6 Xposition Yposition Zposition Zrotation Yrotation Xrotation
  JOINT abdomen
  {
    OFFSET 0 20.6881 -0.73152
    CHANNELS 3 Zrotation Xrotation Yrotation
    JOINT chest
    {
      OFFSET 0 11.7043 -0.48768
      CHANNELS 3 Zrotation Xrotation Yrotation
      JOINT neck
      {
        OFFSET 0 22.1894 -2.19456
        CHANNELS 3 Zrotation Xrotation Yrotation
        JOINT head
        {
          OFFSET -0.24384 7.07133 1.2192
          CHANNELS 3 Zrotation Xrotation Yrotation
          JOINT leftEye
          {
            OFFSET 4.14528 8.04674 8.04672
            CHANNELS 3 Zrotation Xrotation Yrotation
            End Site
            {
              OFFSET 1 0 0
            }
          }
          JOINT rightEye
          {
            OFFSET -3.6576 8.04674 8.04672
            CHANNELS 3 Zrotation Xrotation Yrotation
            End Site
            {
              OFFSET 1 0 0
            }
          }
        }
      }
      JOINT rCollar
      {
        OFFSET -2.68224 19.2634 -4.8768
        CHANNELS 3 Zrotation Xrotation Yrotation
        JOINT rShldr
        {
          OFFSET -8.77824 -1.95073 1.46304
          CHANNELS 3 Zrotation Xrotation Yrotation
          JOINT rForeArm
          {
            OFFSET -28.1742 -1.7115 0.48768
            CHANNELS 3 Zrotation Xrotation Yrotation
            JOINT rHand
            {
              OFFSET -22.5879 0.773209 7.07136
              CHANNELS 3 Zrotation Xrotation Yrotation
              JOINT rThumb1
              {
                OFFSET -1.2192 -0.487915 3.41376
                CHANNELS 3 Zrotation Xrotation Yrotation
                JOINT rThumb2
                {
                  OFFSET -3.37035 -0.52449 3.41376
                  CHANNELS 3 Zrotation Xrotation Yrotation
                  End Site
                  {
                    OFFSET -1.78271 -1.18214 1.43049
                  }
                }
              }
              JOINT rIndex1
              {
                OFFSET -7.75947 0.938293 5.60832
                CHANNELS 3 Zrotation Xrotation Yrotation
                JOINT rIndex2
                {
                  OFFSET -2.54057 -0.884171 1.56538
                  CHANNELS 3 Zrotation Xrotation Yrotation
                  End Site
                  {
                    OFFSET -1.62519 -0.234802 1.16502
                  }
                }
              }
              JOINT rMid1
              {
                OFFSET -8.24714 1.18213 3.41376
                CHANNELS 3 Zrotation Xrotation Yrotation
                JOINT rMid2
                {
                  OFFSET -3.10165 -0.590103 1.0647
                  CHANNELS 3 Zrotation Xrotation Yrotation
                  End Site
                  {
                    OFFSET -2.48547 -0.328903 0.83742
                  }
                }
              }
              JOINT rRing1
              {
                OFFSET -8.82822 0.546677 1.51678
                CHANNELS 3 Zrotation Xrotation Yrotation
                JOINT rRing2
                {
                  OFFSET -2.60934 -0.819778 -0.0198488
                  CHANNELS 3 Zrotation Xrotation Yrotation
                  End Site
                  {
                    OFFSET -2.33842 -0.294052 0.168128
                  }
                }
              }
              JOINT rPinky1
              {
                OFFSET -8.27202 -0.0477905 -0.4584
                CHANNELS 3 Zrotation Xrotation Yrotation
                JOINT rPinky2
                {
                  OFFSET -1.82734 -0.647385 -0.700984
                  CHANNELS 3 Zrotation Xrotation Yrotation
                  End Site
                  {
                    OFFSET -1.69225 -0.51767 -0.607171
                  }
                }
              }
            }
          }
        }
      }
      JOINT lCollar
      {
        OFFSET 2.68224 19.2634 -4.8768
        CHANNELS 3 Zrotation Xrotation Yrotation
        JOINT lShldr
        {
          OFFSET 8.77824 -1.95073 1.46304
          CHANNELS 3 Zrotation Xrotation Yrotation
          JOINT lForeArm
          {
            OFFSET 28.1742 -1.7115 0.48768
            CHANNELS 3 Zrotation Xrotation Yrotation
            JOINT lHand
            {
              OFFSET 22.5879 0.773209 7.07136
              CHANNELS 3 Zrotation Xrotation Yrotation
              JOINT lThumb1
              {
                OFFSET 1.2192 -0.487915 3.41376
                CHANNELS 3 Zrotation Xrotation Yrotation
                JOINT lThumb2
                {
                  OFFSET 3.37035 -0.52449 3.41376
                  CHANNELS 3 Zrotation Xrotation Yrotation
                  End Site
                  {
                    OFFSET 1.78271 -1.18214 1.43049
                  }
                }
              }
              JOINT lIndex1
              {
                OFFSET 7.75947 0.938293 5.60832
                CHANNELS 3 Zrotation Xrotation Yrotation
                JOINT lIndex2
                {
                  OFFSET 2.54057 -0.884171 1.56538
                  CHANNELS 3 Zrotation Xrotation Yrotation
                  End Site
                  {
                    OFFSET 1.62519 -0.234802 1.16502
                  }
                }
              }
              JOINT lMid1
              {
                OFFSET 8.24714 1.18213 3.41376
                CHANNELS 3 Zrotation Xrotation Yrotation
                JOINT lMid2
                {
                  OFFSET 3.10165 -0.590103 1.0647
                  CHANNELS 3 Zrotation Xrotation Yrotation
                  End Site
                  {
                    OFFSET 2.48547 -0.328903 0.83742
                  }
                }
              }
              JOINT lRing1
              {
                OFFSET 8.82822 0.546677 1.51678
                CHANNELS 3 Zrotation Xrotation Yrotation
                JOINT lRing2
                {
                  OFFSET 2.60934 -0.819778 -0.0198488
                  CHANNELS 3 Zrotation Xrotation Yrotation
                  End Site
                  {
                    OFFSET 2.33842 -0.294052 0.168128
                  }
                }
              }
              JOINT lPinky1
              {
                OFFSET 8.27202 -0.0477905 -0.4584
                CHANNELS 3 Zrotation Xrotation Yrotation
                JOINT lPinky2
                {
                  OFFSET 1.82734 -0.647385 -0.700984
                  CHANNELS 3 Zrotation Xrotation Yrotation
                  End Site
                  {
                    OFFSET 1.69225 -0.51767 -0.607171
                  }
                }
              }
            }
          }
        }
      }
    }
  }
  JOINT rButtock
  {
    OFFSET -8.77824 4.35084 1.2192
    CHANNELS 3 Zrotation Xrotation Yrotation
    JOINT rThigh
    {
      OFFSET 0 -1.70687 -2.19456
      CHANNELS 3 Zrotation Xrotation Yrotation
      JOINT rShin
      {
        OFFSET 0 -36.8199 0.73152
        CHANNELS 3 Zrotation Xrotation Yrotation
        JOINT rFoot
        {
          OFFSET 0.73152 -45.1104 -5.12064
          CHANNELS 3 Zrotation Xrotation Yrotation
          End Site
          {
            OFFSET -1.1221 -3.69964 12.103
          }
        }
      }
    }
  }
  JOINT lButtock
  {
    OFFSET 8.77824 4.35084 1.2192
    CHANNELS 3 Zrotation Xrotation Yrotation
    JOINT lThigh
    {
      OFFSET 0 -1.70687 -2.19456
      CHANNELS 3 Zrotation Xrotation Yrotation
      JOINT lShin
      {
        OFFSET 0 -36.8199 0.73152
        CHANNELS 3 Zrotation Xrotation Yrotation
        JOINT lFoot
        {
          OFFSET -0.73152 -45.1104 -5.12064
          CHANNELS 3 Zrotation Xrotation Yrotation
          End Site
          {
            OFFSET 1.1221 -3.69964 12.103
          }
        }
      }
    }
  }
}
MOTION
Frames:	8
Frame Time:	0.00833333
143.30266 75.100266 -21.21276 -1.0075108 -24.16741 10.813863 -2.1231287 -3.8801675 -0.8632878 -0.8888228 -5.47999 -0.22717181 -5.793401 18.051008 -14.957879 9.885305 -25.398773 -28.291985 -0.08283279 -0.050610032 0.017185953 -0.030144898 -0.036368918 -0.0036037387 -0.009553078 0.041427173 -0.015361146 71.967285 9.680189 12.176968 -26.026058 -19.802103 50.194588 -0.10950582 -4.573157 -0.6036197 -0.0884471 -0.036760844 0.011947038 0.05838753 0.07467722 0.008371004 0.034845494 -0.088883065 0.013097145 7.70853 5.455875 0.43428993 -0.07832471 0.009017639 0.005484923 2.9857183 0.99903804 0.06797226 -0.10762649 0.06780615 0.014064938 10.322151 0.7747674 0.13014723 -0.04769336 0.025710128 -0.019847246 2.1464744 -0.68535495 -0.23899585 -0.014597734 0.033885494 -0.07192102 -87.74288 24.459087 20.791306 28.0199 -31.434422 -69.60592 0.1947906 4.255957 -0.44657367 0.001162877 0.013322457 0.053961847 -0.08725583 0.014688379 0.065059386 0.041473452 0.03216586 0.04193686 -7.785497 5.5735726 -0.40383866 0.097245485 -0.04877995 0.017966041 -2.9592786 0.9409154 -0.056227855 0.0766289 0.02586333 -0.07266149 -10.303729 0.6380219 -0.15685695 -0.046057288 -0.0062357117 -0.08087429 -2.2376742 -0.6949487 0.22227992 -0.01779887 -0.036319282 0.01043383 0.6269644 -12.185907 -9.704706 -0.42641595 32.174732 0.9799554 -2.3717952 -14.538941 -6.7095666 0.026944548 0.0057144584 0.053157173 -2.1081085 -27.604788 -5.461168 0.13814752 42.45436 -1.0280515 2.0764575 -11.532103 5.7927012
143.57982 75.10023 -21.334047 -1.0078968 -24.177147 10.814265 -2.1227534 -3.8801382 -0.86378765 -0.8889929 -5.4807153 -0.22731005 -5.793524 18.05173 -14.958499 9.885165 -25.400509 -28.2934 -0.08282799 -0.05060969 0.017184632 -0.030145535 -0.0363704 -0.0036045192 -0.009556354 0.041427474 -0.015362959 71.97083 9.679615 12.1762905 -26.025297 -19.800667 50.192226 -0.10951789 -4.5742197 -0.6037439 -0.0884529 -0.036758337 0.011950494 0.058388755 0.074678816 0.008369379 0.034844127 -0.08888669 0.013097901 7.7085238 5.4558706 0.43429098 -0.078329906 0.00901904 0.005481536 2.985721 0.9990313 0.06796936 -0.10762508 0.067804486 0.01406545 10.322151 0.77476937 0.13014819 -0.04769225 0.025708733 -0.019849803 2.1464732 -0.6853538 -0.23899773 -0.014600515 0.03388547 -0.071921885 -87.74163 24.454935 20.791676 28.019672 -31.433369 -69.60421 0.1947753 4.258978 -0.44702655 0.0011651864 0.013322071 0.053963322 -0.08726118 0.014687145 0.06505948 0.041475885 0.032168426 0.04193347 -7.7855 5.573572 -0.40383536 0.09724251 -0.04877948 0.017963199 -2.9592752 0.94091153 -0.056225542 0.07662849 0.025862327 -0.072663665 -10.303732 0.6380204 -0.15686029 -0.046054438 -0.006234279 -0.080873 -2.23767 -0.6949491 0.22227828 -0.01779697 -0.036319558 0.010429973 0.62678516 -12.184992 -9.704783 -0.42648217 32.17375 0.9800132 -2.37166 -14.5379 -6.7097025 0.026943624 0.005712729 0.05315939 -2.1080678 -27.60457 -5.461086 0.13814525 42.454655 -1.028047 2.0765142 -11.532711 5.792791
143.85696 75.100204 -21.455416 -1.0082582 -24.186659 10.81466 -2.122387 -3.880108 -0.864279 -0.88915586 -5.481421 -0.22744775 -5.7936425 18.052431 -14.959102 9.885025 -25.402208 -28.294792 -0.08282381 -0.050609708 0.017183902 -0.030146131 -0.036372274 -0.0036054233 -0.009559701 0.041427817 -0.015364528 71.974266 9.679037 12.175632 -26.024563 -19.799274 50.189922 -0.10952995 -4.5752606 -0.60386086 -0.08845899 -0.0367563 0.011953716 0.05838981 0.07468068 0.008368167 0.03484267 -0.08889045 0.0130988555 7.7085214 5.455869 0.43429202 -0.07833527 0.0090199495 0.005477993 2.985724 0.9990252 0.067966916 -0.107623495 0.06780292 0.014066009 10.322153 0.77477115 0.13014856 -0.047691464 0.025707267 -0.01985205 2.1464725 -0.6853525 -0.23899941 -0.014603295 0.033884864 -0.07192321 -87.74042 24.450861 20.792036 28.019459 -31.432344 -69.602516 0.19476147 4.2619343 -0.4474698 0.0011671475 0.013321283 0.053964704 -0.08726613 0.014685678 0.06506003 0.041477747 0.03217094 0.041930865 -7.7855 5.573572 -0.403832 0.09723971 -0.0487792 0.017960588 -2.9592726 0.940908 -0.056222986 0.07662799 0.025861595 -0.07266587 -10.303734 0.63801825 -0.15686364 -0.046051532 -0.006233073 -0.08087108 -2.2376668 -0.6949495 0.22227727 -0.01779495 -0.036319558 0.010426309 0.6266097 -12.184089 -9.70486 -0.42654115 32.17278 0.98006326 -2.3715436 -14.536882 -6.709844 0.026942886 0.0057112067 0.05316138 -2.1080186 -27.604347 -5.4609876 0.1381462 42.45493 -1.028048 2.0765624 -11.53329 5.792874
144.13408 75.10017 -21.576864 -1.0086185 -24.195967 10.8150425 -2.1220238 -3.8800752 -0.8647562 -0.8893188 -5.482113 -0.2275826 -5.7937603 18.053127 -14.959691 9.884889 -25.40386 -28.296148 -0.08281955 -0.050609812 0.017182758 -0.030146625 -0.03637376 -0.003606289 -0.00956319 0.04142821 -0.015366224 71.97767 9.678478 12.174988 -26.023838 -19.797903 50.187675 -0.109541245 -4.576279 -0.6039788 -0.08846468 -0.036753908 0.011957211 0.05839059 0.07468251 0.008366467 0.034841128 -0.08889421 0.013099832 7.7085185 5.4558682 0.4342937 -0.07834007 0.009020841 0.005474736 2.9857264 0.99901897 0.067964725 -0.10762216 0.06780144 0.014066682 10.322153 0.7747731 0.13014881 -0.047690473 0.025705796 -0.019854685 2.146471 -0.68535095 -0.239001 -0.0146057885 0.033884406 -0.07192422 -87.73919 24.446884 20.79237 28.019249 -31.43133 -69.60086 0.19474755 4.2648263 -0.4479035 0.0011689991 0.013320916 0.053966057 -0.08727125 0.014684367 0.06506012 0.04147979 0.03217278 0.04192809 -7.785499 5.5735703 -0.40382877 0.09723653 -0.048779014 0.017958127 -2.95927 0.9409044 -0.05622061 0.07662787 0.025860084 -0.0726678 -10.303737 0.63801634 -0.15686661 -0.046048697 -0.0062320894 -0.08086951 -2.2376628 -0.6949493 0.22227614 -0.017793205 -0.03631987 0.01042253 0.62641996 -12.183218 -9.70494 -0.42660448 32.171837 0.98012197 -2.3714259 -14.535897 -6.7099876 0.026942374 0.0057096276 0.053162985 -2.1079838 -27.604134 -5.460894 0.13813686 42.455208 -1.02804 2.0766115 -11.533873 5.792961
144.4112 75.10013 -21.698391 -1.0089698 -24.205065 10.815428 -2.1216736 -3.8800523 -0.8652227 -0.8894759 -5.4827895 -0.22771339 -5.7938747 18.053802 -14.960277 9.884748 -25.40549 -28.297491 -0.08281526 -0.050609767 0.017182251 -0.030147599 -0.03637531 -0.003606975 -0.009566326 0.041428655 -0.015367797 71.98096 9.677933 12.17436 -26.023129 -19.796562 50.18546 -0.10955157 -4.5772734 -0.60409623 -0.088470295 -0.03675152 0.01196047 0.058391657 0.074683756 0.008365087 0.034839995 -0.08889767 0.013100427 7.708517 5.4558663 0.43429533 -0.07834484 0.009021707 0.0054714065 2.985729 0.99901277 0.06796162 -0.10762073 0.06779985 0.014067401 10.322153 0.7747751 0.1301498 -0.04768941 0.025704525 -0.019857207 2.1464696 -0.6853495 -0.239003 -0.01460833 0.03388419 -0.071925946 -87.73804 24.442987 20.792713 28.019054 -31.430365 -69.59926 0.1947335 4.26765 -0.44832772 0.0011708904 0.013320226 0.053967435 -0.08727613 0.014682978 0.06506037 0.041481454 0.0321752 0.041925445 -7.785498 5.573568 -0.40382528 0.0972339 -0.04877892 0.017955322 -2.959268 0.9409013 -0.056219023 0.076627456 0.025859425 -0.0726698 -10.303739 0.6380147 -0.15686987 -0.046045292 -0.006230748 -0.08086822 -2.23766 -0.69494975 0.2222746 -0.017791243 -0.036319908 0.010418867 0.6262517 -12.18237 -9.7050085 -0.42666733 32.17092 0.9801799 -2.3713138 -14.534924 -6.710123 0.026941372 0.005708067 0.053165123 -2.10794 -27.603922 -5.4608126 0.13813666 42.455486 -1.0280374 2.0766616 -11.534426 5.7930355
144.68828 75.1001 -21.819994 -1.0093224 -24.213959 10.8158045 -2.121331 -3.8800232 -0.865678 -0.88962996 -5.483449 -0.2278404 -5.7939863 18.054468 -14.960847 9.884618 -25.407078 -28.298794 -0.082811266 -0.050609756 0.017181108 -0.03014827 -0.036376934 -0.0036081017 -0.009569671 0.041429028 -0.015369446 71.98418 9.677397 12.173749 -26.022436 -19.795256 50.183308 -0.10956206 -4.5782475 -0.6042091 -0.08847559 -0.03674994 0.011963456 0.058392525 0.07468518 0.008363742 0.034838688 -0.08890111 0.013101444 7.708512 5.455863 0.4342964 -0.078349814 0.009022683 0.0054682093 2.9857316 0.99900645 0.06795914 -0.10761921 0.06779837 0.014067792 10.322153 0.7747765 0.13015041 -0.047688894 0.025703326 -0.01985945 2.1464677 -0.6853479 -0.23900421 -0.014610486 0.03388393 -0.0719272 -87.73687 24.439186 20.793037 28.018848 -31.429398 -69.59768 0.19472052 4.270411 -0.4487426 0.0011730702 0.013319698 0.05396866 -0.08728122 0.014681662 0.0650606 0.04148388 0.032177325 0.04192294 -7.785498 5.573568 -0.40382224 0.097231306 -0.04877859 0.017952863 -2.9592652 0.94089746 -0.056216795 0.07662725 0.025858263 -0.07267184 -10.30374 0.63801235 -0.15687253 -0.046042636 -0.006229539 -0.08086681 -2.2376556 -0.69495004 0.22227333 -0.017789183 -0.036320183 0.010415361 0.6260909 -12.181537 -9.705095 -0.42672792 32.17002 0.9802327 -2.3712 -14.533969 -6.7102513 0.026940368 0.005706922 0.05316696 -2.1078985 -27.603714 -5.460722 0.1381327 42.45575 -1.0280318 2.0767045 -11.534976 5.793117
144.96536 75.100075 -21.941671 -1.009666 -24.222647 10.816167 -2.1209915 -3.8799956 -0.8661223 -0.88978183 -5.484096 -0.2279658 -5.7940946 18.055113 -14.961408 9.884487 -25.408628 -28.300068 -0.082807265 -0.05060951 0.017179688 -0.03014868 -0.036378235 -0.0036085758 -0.009572592 0.04142928 -0.015370811 71.987335 9.676869 12.173149 -26.021755 -19.793976 50.181187 -0.10957356 -4.5791993 -0.60431594 -0.088480815 -0.03674751 0.011966365 0.058393538 0.07468666 0.008362459 0.03483736 -0.08890439 0.013102034 7.7085094 5.4558625 0.43429738 -0.07835458 0.009023643 0.0054649636 2.9857337 0.9990009 0.06795697 -0.10761791 0.067797 0.014068211 10.322156 0.7747782 0.13015066 -0.04768767 0.02570201 -0.019861775 2.1464674 -0.68534666 -0.2390059 -0.014612596 0.033883717 -0.07192835 -87.73578 24.435457 20.793371 28.018663 -31.428478 -69.59613 0.19471368 4.2731133 -0.44914708 0.0011746034 0.013319149 0.053970166 -0.08728558 0.0146802785 0.06506101 0.04148545 0.032179605 0.04192009 -7.785498 5.5735664 -0.40381917 0.09722906 -0.048778545 0.017950494 -2.9592628 0.9408938 -0.056214657 0.07662683 0.025857253 -0.07267373 -10.303744 0.6380109 -0.1568757 -0.046039805 -0.006228286 -0.08086524 -2.2376528 -0.69495076 0.22227272 -0.017787378 -0.03632046 0.010412052 0.6259221 -12.180712 -9.705167 -0.42678544 32.169132 0.9802848 -2.3710864 -14.533052 -6.710383 0.026939662 0.0057054167 0.053168558 -2.107866 -27.603504 -5.460651 0.13812847 42.456013 -1.0280257 2.0767515 -11.535511 5.793201
145.24242 75.10004 -22.063421 -1.0099933 -24.231153 10.816528 -2.120665 -3.8799708 -0.8665578 -0.8899313 -5.484725 -0.22808665 -5.794199 18.055742 -14.9619465 9.884359 -25.410149 -28.301317 -0.08280325 -0.050609745 0.017179456 -0.030149205 -0.03637987 -0.0036093611 -0.009575441 0.04142928 -0.015372436 71.990425 9.676363 12.172567 -26.021095 -19.792728 50.17913 -0.109584674 -4.5801296 -0.60442275 -0.08848603 -0.0367455 0.011969661 0.058394153 0.074687935 0.00836125 0.034836322 -0.08890783 0.013102588 7.7085066 5.455861 0.43429834 -0.078359276 0.009024712 0.0054616816 2.9857364 0.9989951 0.067954466 -0.10761656 0.06779522 0.01406914 10.322159 0.77478045 0.13015148 -0.047686994 0.02570062 -0.01986386 2.1464663 -0.6853451 -0.23900735 -0.014615279 0.033883154 -0.071929544 -87.73468 24.43181 20.793686 28.018467 -31.427557 -69.59463 0.19470184 4.275755 -0.44954532 0.0011762757 0.013318918 0.053971387 -0.087290086 0.0146790445 0.0650613 0.041487593 0.03218178 0.041917443 -7.785497 5.573565 -0.40381616 0.09722626 -0.048778106 0.017948417 -2.95926 0.94089055 -0.05621286 0.076626554 0.025856365 -0.072675385 -10.303747 0.6380096 -0.1568783 -0.046037156 -0.006227123 -0.08086412 -2.2376497 -0.6949506 0.22227119 -0.01778583 -0.036320385 0.010408587 0.62575716 -12.179919 -9.705239 -0.42684144 32.168266 0.98033583 -2.3709795 -14.532147 -6.7105083 0.026938967 0.0057038767 0.053170484 -2.1078317 -27.603323 -5.4605665 0.13812545 42.456257 -1.0280234 2.0767982 -11.536035 5.7932777
